<?xml version="1.0" encoding="utf-8"?>
<svg viewBox="0 0 500 500" xmlns="http://www.w3.org/2000/svg">
  <g transform="matrix(1, 0, 0, 1, -12.454385, -27.944908)">
    <path class="st0" d="M 312.582 230.108 C 312.582 215.744 306.755 202.614 297.394 193.221 C 288.042 183.802 275.01 177.931 260.724 177.941 C 246.457 177.931 233.399 183.803 224.071 193.221 C 214.71 202.614 208.883 215.745 208.883 230.108 L 208.883 248.467 L 192.155 248.467 L 192.155 320.811 C 192.155 339.246 207.01 354.193 225.34 354.193 L 296.125 354.193 C 314.455 354.193 329.311 339.246 329.311 320.811 L 329.311 248.467 L 312.582 248.467 L 312.582 230.108 Z M 287.421 248.467 L 234.047 248.467 L 234.047 230.109 C 234.047 226.374 234.805 222.867 236.142 219.654 C 238.153 214.863 241.56 210.731 245.819 207.835 C 250.095 204.929 255.163 203.266 260.725 203.258 C 264.447 203.258 267.931 204.004 271.108 205.358 C 275.895 207.39 279.984 210.818 282.863 215.112 C 285.734 219.396 287.403 224.488 287.421 230.109 L 287.421 248.467 Z" style=""/>
    <path class="st0" d="M 280.077 65.562 L 280.077 30.981 L 201.585 83.638 L 280.077 129.714 L 280.077 100.882 C 320.529 105.365 356.747 123.671 384.082 151.148 C 415.674 182.962 435.162 226.732 435.172 275.259 L 470.061 275.259 C 470.053 165.495 386.62 75.402 280.077 65.562 Z" style=""/>
    <path class="st0" d="M 243.724 447.296 C 156.38 438.812 87.497 365.344 86.295 275.019 L 51.406 275.499 C 52.913 385.245 137.531 474.157 244.192 482.547 L 244.661 517.163 L 322.438 463.434 L 243.332 418.439 L 243.724 447.296 Z" style=""/>
  </g>
</svg>