<?xml version="1.0" encoding="utf-8"?>
<svg viewBox="0 0 500 500" xmlns="http://www.w3.org/2000/svg">
  <g transform="matrix(1, 0, 0, 1, -12.454385, -27.944908)">
    <path class="st0" d="M 280.077 65.562 L 280.077 30.981 L 201.585 83.638 L 280.077 129.714 L 280.077 100.882 C 320.529 105.365 356.747 123.671 384.082 151.148 C 415.674 182.962 435.162 226.732 435.172 275.259 L 470.061 275.259 C 470.053 165.495 386.62 75.402 280.077 65.562 Z" style=""/>
    <path class="st0" d="M 243.724 447.296 C 156.38 438.812 87.497 365.344 86.295 275.019 L 51.406 275.499 C 52.913 385.245 137.531 474.157 244.192 482.547 L 244.661 517.163 L 322.438 463.434 L 243.332 418.439 L 243.724 447.296 Z" style=""/>
  </g>
</svg>